<?xml version="1.0" encoding="UTF-8"?>
<svg version="1.1" xmlns="http://www.w3.org/2000/svg" width="2048" height="2048">
<path d="M0 0 C3.17583682 2.49767351 6.16255835 5.18705925 9.11035156 7.94726562 C11.05968521 9.75823963 13.03605553 11.48434672 15.05957031 13.20898438 C20.59168492 18.03279719 25.73634184 23.24803727 30.91430664 28.44506836 C32.64586106 30.18198288 34.38269765 31.91348577 36.12011719 33.64453125 C41.82416917 39.34490495 47.36515546 45.09724787 52.58691406 51.24804688 C53.59567541 52.38219465 54.60737321 53.51373782 55.62207031 54.64257812 C69.91028732 70.70072665 85.41295493 89.23752916 95.20751953 108.42236328 C98.13651833 111.90073719 99.66968573 112.10082308 104.03352356 112.56253052 C104.88645493 112.62503998 105.73938629 112.68754944 106.61816406 112.75195312 C107.96106758 112.88511429 107.96106758 112.88511429 109.33110046 113.02096558 C111.25066965 113.20922133 113.17144217 113.38551916 115.09310913 113.55099487 C120.12432176 113.98718271 125.14576772 114.51765278 130.16894531 115.03710938 C131.16203201 115.13755051 132.15511871 115.23799164 133.17829895 115.34147644 C187.08152541 120.8829244 242.65960875 138.25353594 288.58691406 167.24804688 C289.2146875 167.64314453 289.84246094 168.03824219 290.48925781 168.4453125 C319.81063309 187.06834815 349.22287843 211.45608712 370.70019531 238.86523438 C372.49486382 241.13179294 374.37786485 243.24838732 376.33691406 245.37304688 C382.54370224 252.29269389 388.03134138 259.80475041 393.58691406 267.24804688 C394.1410498 267.98796875 394.69518555 268.72789062 395.26611328 269.49023438 C416.63592536 298.14249637 437.85524833 330.09083683 434.58691406 367.24804688 C432.68951111 378.04791116 426.3901482 385.5483546 417.89941406 391.99804688 C408.10471811 398.34861383 399.42606884 399.59937097 387.89941406 399.68554688 C386.83005615 399.69577881 385.76069824 399.70601074 384.65893555 399.71655273 C371.64773911 399.57217459 362.59940222 395.12942861 353.14941406 386.31054688 C340.62370035 373.15746581 333.41995697 356.39547817 325.58691406 340.24804688 C315.35929489 319.33540896 304.2811189 300.29824391 288.88330078 282.73242188 C287.66914152 281.34219809 286.4730327 279.93626781 285.27832031 278.52929688 C279.91708374 272.33663858 274.04818804 267.26289625 267.58691406 262.24804688 C266.64589844 261.49136719 265.70488281 260.7346875 264.73535156 259.95507812 C244.4100305 243.85763393 221.99593994 230.34616765 198.58691406 219.24804688 C197.92498047 218.92771484 197.26304687 218.60738281 196.58105469 218.27734375 C182.71642742 211.60374804 168.22719794 206.91624694 153.58691406 202.24804688 C154.27497648 205.82967641 155.75387904 208.63138958 157.50878906 211.81445312 C158.41878662 213.48096924 158.41878662 213.48096924 159.34716797 215.18115234 C159.67114563 215.77136169 159.99512329 216.36157104 160.32891846 216.96966553 C187.52105126 266.63009045 207.13820798 319.48775096 225.74243164 372.82714844 C226.29009854 374.39715855 226.83870667 375.96684077 227.38842773 377.53613281 C242.56935773 420.88287902 254.34914961 465.29278716 265.85671997 509.72917175 C267.59208369 516.42949727 269.34197335 523.12562986 271.11299133 529.81661987 C278.43092537 557.46593599 285.27486179 585.21031541 291.93463516 613.02394104 C317.121435 743.86902575 317.121435 743.86902575 389.77441406 870.74804688 C395.88155958 874.12606174 401.55641855 875.96301252 408.58691406 875.24804688 C419.6168666 872.06563434 427.05813848 866.25106319 432.58691406 856.24804688 C440.70777897 840.79555713 445.13087599 824.57710601 446.58691406 807.24804688 C446.67972656 806.18134766 446.77253906 805.11464844 446.86816406 804.015625 C448.94102641 775.23846573 443.1883074 746.7667935 438.63852882 718.46940994 C435.96073073 701.777678 434.23564967 685.14061327 433.58691406 668.24804688 C433.544375 667.21679688 433.50183594 666.18554688 433.45800781 665.12304688 C433.00191341 643.23051548 436.75908588 619.04001733 451.02441406 601.62304688 C461.65180016 590.73236968 476.60694003 585.32047126 491.58691406 584.93554688 C505.97370521 585.19768562 518.1414449 592.70334785 528.58691406 602.24804688 C530.73448169 604.49946924 532.78943212 606.79400441 534.79785156 609.16992188 C536.57002202 611.28539985 536.57002202 611.28539985 538.60644531 613.24023438 C547.99126322 622.75462571 553.55805868 635.64699014 557.83691406 648.12304688 C558.18798218 649.12754883 558.18798218 649.12754883 558.54614258 650.15234375 C562.65658174 662.74728309 564.12960699 676.20230736 565.64941406 689.31054688 C565.77539978 690.38843475 565.77539978 690.38843475 565.90393066 691.48809814 C566.32640008 695.11344502 566.74144408 698.73952803 567.14794922 702.36669922 C567.40963527 704.68053949 567.67778172 706.99368566 567.95947266 709.30517578 C577.28149475 785.81821514 560.66889834 864.83377944 512.89941406 926.08789062 C509.74479479 930.08033966 506.51375699 934.00161238 503.21191406 937.87304688 C502.74865723 938.41646729 502.28540039 938.9598877 501.80810547 939.51977539 C482.38268265 961.92653315 455.12548306 979.25328677 425.14941406 981.93554688 C422.96291291 982.05891489 420.77523255 982.16278771 418.58691406 982.24804688 C416.90275391 982.32732422 416.90275391 982.32732422 415.18457031 982.40820312 C390.88934479 983.03676352 365.26698674 972.10683679 345.58691406 958.24804688 C344.14445312 957.23291016 344.14445312 957.23291016 342.67285156 956.19726562 C335.13675767 950.71558492 328.31889915 944.6660035 321.58691406 938.24804688 C320.60078125 937.32378906 320.60078125 937.32378906 319.59472656 936.38085938 C314.94568146 931.90320764 310.95052714 926.93044083 306.92041016 921.89794922 C305.47705219 920.11211745 304.01234698 918.34536724 302.54394531 916.58007812 C283.59100187 893.71561853 268.8824423 868.75990784 255.58691406 842.24804688 C255.15282227 841.3838916 254.71873047 840.51973633 254.27148438 839.62939453 C237.6787351 806.33548833 226.05853538 771.31119702 216.08691406 735.56054688 C215.83724884 734.66601807 215.58758362 733.77148926 215.33035278 732.84985352 C212.61867059 723.09018329 210.04372438 713.31667362 207.81677246 703.43391418 C206.99707816 699.7414125 206.99707816 699.7414125 205.58691406 696.24804688 C204.99523437 697.24964844 204.40355469 698.25125 203.79394531 699.28320312 C202.9959297 700.62574703 202.19774346 701.96818953 201.39941406 703.31054688 C201.01205078 703.96732422 200.6246875 704.62410156 200.22558594 705.30078125 C199.83564453 705.95498047 199.44570313 706.60917969 199.04394531 707.28320312 C198.64900879 707.94852051 198.25407227 708.61383789 197.84716797 709.29931641 C196.59654538 711.23315397 195.19728641 712.91539721 193.72363281 714.68164062 C191.65773648 717.59315454 191.58686554 718.26400929 191.57519531 722.10351562 C191.88378753 723.8237454 192.22632006 725.53796162 192.58691406 727.24804688 C192.93050681 729.15010534 193.27388838 731.05220331 193.61463928 732.95477295 C194.02022987 735.19613869 194.4384227 737.43485646 194.85961914 739.67333984 C197.97436258 756.26918408 200.6527242 772.88724368 202.89941406 789.62304688 C203.02206635 790.53454498 203.14471863 791.44604309 203.27108765 792.38516235 C203.9618063 797.54441374 204.63382689 802.70575502 205.28619385 807.86999512 C205.48209533 809.41915559 205.67987715 810.96807981 205.87982178 812.51672363 C207.98065143 828.83998414 208.82390261 845.10657868 208.83691406 861.56054688 C208.83792618 862.73934418 208.83792618 862.73934418 208.83895874 863.94195557 C208.73558208 941.16914793 190.2623622 1026.68600676 135.58691406 1084.24804688 C135.09771484 1084.76979492 134.60851562 1085.29154297 134.10449219 1085.82910156 C120.98962353 1099.73856753 106.29142527 1110.98493185 89.58691406 1120.24804688 C88.87341797 1120.65120117 88.15992188 1121.05435547 87.42480469 1121.46972656 C69.71311253 1131.42776956 51.8276573 1138.60554029 31.72607422 1141.88964844 C29.89532377 1142.1963754 28.07369524 1142.55672223 26.25488281 1142.92773438 C-6.57409184 1149.20955652 -42.02515408 1141.52681006 -69.69824219 1123.21679688 C-88.07096545 1109.89326806 -101.70959951 1093.26074981 -110.41308594 1072.24804688 C-110.92613281 1071.06597656 -111.43917969 1069.88390625 -111.96777344 1068.66601562 C-130.37711353 1025.458446 -120.82846624 975.20203226 -106.41308594 932.24804688 C-106.1270752 931.39017578 -105.84106445 930.53230469 -105.54638672 929.6484375 C-92.04113915 889.70584039 -69.57216596 853.32759965 -42.41308594 821.24804688 C-41.54404738 820.2055355 -40.67558746 819.16254159 -39.80761719 818.11914062 C-34.37920603 811.61914199 -28.79141253 805.29788172 -23.03417969 799.08789062 C-20.60805988 796.45929286 -18.22518144 793.79811844 -15.85058594 791.12304688 C-12.04317342 786.87291197 -8.0567764 782.84409584 -3.96777344 778.86523438 C-1.99358982 776.84275269 -0.15918063 774.80863501 1.67456055 772.66479492 C5.83317196 767.89701613 10.26158313 763.42942661 14.73925781 758.96289062 C16.02770348 757.67300987 16.02770348 757.67300987 17.34217834 756.35707092 C19.14868421 754.54988826 20.95643868 752.74395296 22.76538086 750.93920898 C25.51628216 748.19366295 28.26180627 745.44282142 31.00683594 742.69140625 C32.77148938 740.92741368 34.53645303 739.16373137 36.30175781 737.40039062 C37.11345932 736.58666489 37.92516083 735.77293915 38.76145935 734.93455505 C42.99993773 730.7132575 47.30791183 726.64161861 51.85473633 722.75317383 C54.57269562 720.39147981 57.1163637 717.86748992 59.64941406 715.31054688 C60.16834229 714.78968506 60.68727051 714.26882324 61.22192383 713.73217773 C64.50243016 710.41471373 67.63720473 707.03138883 70.56738281 703.39648438 C72.33348931 701.51764768 74.03663022 700.09383181 76.07519531 698.53710938 C79.82457959 695.54604389 83.37689846 692.58021132 85.58691406 688.24804688 C85.69691523 682.46430104 83.82481598 677.81180356 81.76074219 672.46630859 C80.34385334 668.58165202 79.15114257 664.65320185 77.97753906 660.68945312 C77.64472679 659.56598984 77.64472679 659.56598984 77.30519104 658.41983032 C76.85449071 656.89618388 76.40422032 655.3724102 75.95437622 653.84851074 C74.85775435 650.15855362 73.72903183 646.47855265 72.59863281 642.79882812 C72.21151123 641.53723877 71.82438965 640.27564941 71.42553711 638.97583008 C71.1487915 638.07566162 70.8720459 637.17549316 70.58691406 636.24804688 C70.4522876 636.8796875 70.31766113 637.51132813 70.17895508 638.16210938 C62.51161658 673.50379749 49.33792225 707.39056991 24.58691406 734.24804688 C23.84957031 735.06789063 23.11222656 735.88773438 22.35253906 736.73242188 C4.89391147 755.24119248 -21.35046442 769.13279348 -46.96777344 770.42773438 C-84.23581598 771.09191731 -120.54266035 760.76510141 -150.41308594 738.24804688 C-151.38503906 737.51972656 -152.35699219 736.79140625 -153.35839844 736.04101562 C-165.51320722 726.49080873 -175.8840295 715.27392539 -185.12939453 702.9375 C-186.37945963 701.29230211 -187.66300365 699.68138651 -188.96386719 698.07617188 C-222.61107967 656.28094104 -229.71505981 600.40823647 -237.0068512 549.03848267 C-241.38406362 518.2140478 -246.01765202 487.65539096 -256.47558594 458.18554688 C-256.77964355 457.32340576 -257.08370117 456.46126465 -257.39697266 455.57299805 C-260.32405967 447.71985657 -263.98328081 439.25148525 -270.97558594 434.24804688 C-271.69875 433.71179687 -272.42191406 433.17554688 -273.16699219 432.62304688 C-279.69009668 428.62977247 -285.8779478 428.4593272 -293.28808594 429.74804688 C-299.18432578 433.91009853 -300.91445541 443.50757247 -302.78808594 450.12304688 C-303.0869873 451.17258545 -303.38588867 452.22212402 -303.69384766 453.3034668 C-320.36782527 512.81870982 -323.62907692 574.7117859 -314.41308594 635.81054688 C-314.21595001 637.11952942 -314.21595001 637.11952942 -314.01483154 638.45495605 C-313.6345399 640.95108107 -313.24517134 643.4455508 -312.85058594 645.93945312 C-312.7359903 646.67666092 -312.62139465 647.41386871 -312.50332642 648.17341614 C-311.77606402 652.64478683 -310.70933944 656.89917356 -309.41308594 661.24804688 C-309.08996927 663.09699227 -308.79723398 664.95155635 -308.53808594 666.81054688 C-307.42101447 673.8096978 -305.47960761 680.4773704 -303.41308594 687.24804688 C-302.89681641 688.94380859 -302.89681641 688.94380859 -302.37011719 690.67382812 C-301.70036622 692.85757553 -301.02602613 695.03992173 -300.34667969 697.22070312 C-299.50464265 699.95115794 -298.70537436 702.69037455 -297.91308594 705.43554688 C-296.6788509 709.58096674 -295.1559931 713.54923782 -293.47558594 717.53320312 C-292.57054661 719.84571169 -291.7787462 722.14985699 -291.01074219 724.50976562 C-289.4963965 729.1006291 -287.7374265 733.54885387 -285.85058594 737.99804688 C-285.50833984 738.80661133 -285.16609375 739.61517578 -284.81347656 740.44824219 C-266.03095618 784.31332333 -240.81517166 825.10607891 -208.41308594 860.24804688 C-206.82715892 861.99569671 -205.2438306 863.74570822 -203.66308594 865.49804688 C-202.91671875 866.32433594 -202.17035156 867.150625 -201.40136719 868.00195312 C-199.82758929 869.77979653 -198.32497777 871.57653108 -196.85058594 873.43554688 C-194.89616309 875.69065016 -193.06615275 877.46927515 -190.81152344 879.38476562 C-186.21987742 883.36523514 -181.89816796 887.57925796 -177.60058594 891.87304688 C-176.85099609 892.61039063 -176.10140625 893.34773438 -175.32910156 894.10742188 C-174.60787109 894.82671875 -173.88664063 895.54601563 -173.14355469 896.28710938 C-172.49797607 896.9285791 -171.85239746 897.57004883 -171.18725586 898.23095703 C-167.46220547 902.46604253 -165.97018936 905.39436556 -166.20458984 911.1864624 C-166.53264631 914.43024553 -167.26784087 917.48132206 -168.10058594 920.63085938 C-168.27870316 921.31568893 -168.45682037 922.00051849 -168.64033508 922.70610046 C-169.22160806 924.93108293 -169.81680973 927.15204247 -170.41308594 929.37304688 C-170.82287831 930.92323791 -171.23196772 932.47361494 -171.64038086 934.02416992 C-172.47823554 937.19987472 -173.32179451 940.37399643 -174.16845703 943.54736328 C-175.1722639 947.32123776 -176.1490082 951.10128594 -177.1111145 954.88598633 C-177.80944 957.63116329 -178.51687381 960.37394577 -179.22583008 963.11639404 C-179.71484535 965.0187638 -180.19396194 966.92366935 -180.67285156 968.82861328 C-183.49605634 979.62029851 -183.49605634 979.62029851 -187.41308594 984.24804688 C-190.81259028 985.94779904 -193.77780802 986.03607389 -197.41308594 985.24804688 C-201.71081277 982.97521057 -205.53459868 980.1682603 -209.41308594 977.24804688 C-210.66798828 976.32958984 -210.66798828 976.32958984 -211.94824219 975.39257812 C-217.67296645 971.02689409 -222.69654752 966.08685892 -227.73046875 960.96289062 C-231.17062382 957.46359833 -234.7028037 954.1762808 -238.44042969 950.99414062 C-243.46072274 946.55043569 -248.36164356 941.82270116 -252.54199219 936.57617188 C-254.38031384 934.1117145 -254.38031384 934.1117145 -257.10058594 932.12304688 C-261.0258275 928.97693618 -263.94575284 925.03793769 -267.06933594 921.12304688 C-269.20449965 918.50391272 -271.42204571 916.0310103 -273.72558594 913.56054688 C-278.76483625 908.03675327 -283.13457174 902.06493954 -287.56933594 896.05664062 C-289.78485938 893.06290726 -292.08934797 890.17109854 -294.47558594 887.31054688 C-299.61940004 880.97474244 -303.84641621 874.00467342 -308.21337891 867.12451172 C-309.6409817 864.89159453 -311.11278544 862.69123507 -312.60058594 860.49804688 C-318.53923336 851.62401086 -323.93517043 842.44952436 -329.12280273 833.12304688 C-331.36086458 829.1004341 -333.66703967 825.1319863 -336.03808594 821.18554688 C-340.00144028 814.43316541 -343.19967163 807.37780986 -346.41308594 800.24804688 C-346.86683594 799.25417969 -347.32058594 798.2603125 -347.78808594 797.23632812 C-348.60866468 795.43874782 -349.42520727 793.63931845 -350.23730469 791.83789062 C-351.01903878 790.11599792 -351.81328469 788.39972913 -352.62011719 786.68945312 C-355.48611452 780.56622707 -357.92578161 774.35156152 -360.25048828 768.00878906 C-361.52994857 764.53467028 -362.869478 761.14581134 -364.47558594 757.81054688 C-366.74736377 752.90729306 -368.12559704 747.72952422 -369.57543945 742.53735352 C-370.76090333 738.31753265 -372.13253167 734.24311296 -373.70581055 730.15258789 C-377.84814123 718.99817931 -380.48831652 707.02549833 -382.88574219 695.38085938 C-383.41283433 693.11297361 -383.41283433 693.11297361 -384.38183594 690.43554688 C-385.48957363 687.01163039 -386.19678607 683.66169251 -386.85058594 680.12304688 C-386.97546387 679.44943115 -387.1003418 678.77581543 -387.22900391 678.08178711 C-388.45942778 671.29295027 -389.45838759 664.46903787 -390.41088867 657.63623047 C-390.63634898 653.61196665 -390.63634898 653.61196665 -392.41308594 650.24804688 C-397.3885839 620.59911233 -398.06442649 589.21929087 -397.41308594 559.24804688 C-397.39375 558.32991211 -397.37441406 557.41177734 -397.35449219 556.46582031 C-396.96371143 540.97825958 -395.21394037 525.62531597 -393.41308594 510.24804688 C-393.31350586 509.39178711 -393.21392578 508.53552734 -393.11132812 507.65332031 C-391.53280489 494.20430232 -389.48196248 480.92018676 -386.60058594 467.68554688 C-386.33777832 466.47189453 -386.0749707 465.25824219 -385.80419922 464.0078125 C-379.70060642 436.08673016 -379.70060642 436.08673016 -375.20996094 423.75585938 C-374.33560717 421.22135224 -374.33560717 421.22135224 -373.95996094 418.38867188 C-373.32202561 414.7251004 -372.18084975 411.35403971 -370.91308594 407.87304688 C-370.65390381 407.15407227 -370.39472168 406.43509766 -370.12768555 405.69433594 C-369.54846346 404.09497885 -368.96618533 402.49672625 -368.38134766 400.89941406 C-367.70325051 399.04259737 -367.03087542 397.18368564 -366.36279297 395.32324219 C-360.34227847 378.56609904 -354.55484438 363.62295266 -342.41308594 350.24804688 C-341.96835937 349.7541748 -341.52363281 349.26030273 -341.06542969 348.75146484 C-326.02203506 332.24668195 -305.20890772 320.29960428 -282.59277344 318.86523438 C-260.75021352 318.06667056 -244.45699761 328.67336701 -228.56933594 342.77148438 C-220.83677929 350.17074117 -214.57258221 358.52927886 -208.41308594 367.24804688 C-207.97077637 367.87227539 -207.5284668 368.49650391 -207.07275391 369.13964844 C-182.33444313 404.36760292 -169.18045196 444.60366722 -158.89746094 486.02539062 C-158.6084491 487.18807339 -158.6084491 487.18807339 -158.31359863 488.37424469 C-156.52679753 495.56992588 -154.75093827 502.76826068 -152.99658203 509.97192383 C-148.64622439 527.80870244 -143.9612177 545.42284638 -138.12402344 562.83789062 C-137.87533257 563.58091871 -137.62664169 564.3239468 -137.37041473 565.08949089 C-131.10062887 583.71154684 -123.45516091 601.36686435 -113.51660156 618.33642578 C-112.51456652 620.07225197 -111.56239281 621.83662382 -110.61621094 623.60351562 C-106.262017 631.61730589 -100.80230329 637.83080664 -94.41308594 644.24804688 C-93.77886719 644.91707031 -93.14464844 645.58609375 -92.49121094 646.27539062 C-88.32016271 650.34493104 -83.56602734 652.94006676 -78.41308594 655.56054688 C-77.74833252 655.89860352 -77.0835791 656.23666016 -76.39868164 656.58496094 C-65.5885028 661.83254314 -54.57374768 662.90996376 -43.04199219 659.25195312 C-34.1503285 655.85647383 -30.12993124 651.2644918 -26.09350586 642.83154297 C-22.72145449 635.22100439 -20.84743535 627.42032105 -19.41308594 619.24804688 C-19.18878906 618.0028125 -18.96449219 616.75757813 -18.73339844 615.47460938 C-14.72349048 589.71232398 -18.27168565 562.5872083 -23.41308594 537.24804688 C-23.61385742 536.21711914 -23.81462891 535.18619141 -24.02148438 534.12402344 C-28.48672916 511.49507108 -36.44665726 490.51862451 -47.41308594 470.24804688 C-47.97382812 469.19875 -48.53457031 468.14945313 -49.11230469 467.06835938 C-55.61710791 455.39307154 -63.65300783 445.56613509 -73.29833984 436.38500977 C-74.70258213 435.03929518 -76.06235861 433.64746813 -77.41308594 432.24804688 C-77.41308594 431.58804687 -77.41308594 430.92804688 -77.41308594 430.24804688 C-78.07308594 430.24804688 -78.73308594 430.24804688 -79.41308594 430.24804688 C-80.78808594 428.84960938 -80.78808594 428.84960938 -82.41308594 426.87304688 C-86.80277443 421.71084591 -91.58841761 417.00070523 -96.41308594 412.24804688 C-105.66889403 403.13038517 -114.022987 393.95614941 -121.41308594 383.24804688 C-121.96222656 382.4565625 -122.51136719 381.66507813 -123.07714844 380.84960938 C-130.70719672 369.07194511 -133.60543938 355.96393082 -133.72558594 342.12304688 C-133.75458984 341.0325 -133.78359375 339.94195313 -133.81347656 338.81835938 C-133.91452089 325.82250397 -129.16199441 317.31590188 -120.34667969 308.08398438 C-109.39646391 297.62349202 -98.13033943 295.85322083 -83.67089844 296.03320312 C-51.13334123 296.97844793 -27.37179849 318.2359812 -6.03466797 340.50390625 C-2.9751936 343.7946146 -0.16021786 347.2548265 2.62207031 350.78320312 C4.49123878 353.12802481 6.44189111 355.34543117 8.46191406 357.56054688 C12.77685757 362.36156109 16.71405044 367.42763764 20.67285156 372.52148438 C22.59025812 374.98561614 24.53147329 377.42692274 26.50097656 379.84960938 C45.6881934 403.45265393 62.29414809 428.97953533 77.58691406 455.24804688 C78.29460937 456.45726807 78.29460937 456.45726807 79.01660156 457.69091797 C101.79050246 496.69122325 122.03965959 537.2066499 138.58691406 579.24804688 C138.91691406 579.24804688 139.24691406 579.24804688 139.58691406 579.24804688 C140.23877434 574.8322484 140.88227272 570.41526827 141.52441406 565.99804688 C141.79801758 564.14566406 141.79801758 564.14566406 142.07714844 562.25585938 C144.15515549 547.89871974 144.77336793 533.89287066 144.7722168 519.40356445 C144.77440665 516.32098644 144.79262736 513.23876518 144.81152344 510.15625 C144.86946395 492.2583256 141.92241707 477.03046386 136.64941406 459.99804688 C136.06217575 458.08265042 135.47510108 456.16720378 134.88818359 454.25170898 C114.45015164 387.80504686 87.48316826 323.90430029 51.58691406 264.24804688 C51.05098633 263.35666016 50.51505859 262.46527344 49.96289062 261.546875 C36.15358017 238.68715492 21.68271059 215.48126598 4.69628906 194.81445312 C3.58691406 193.24804688 3.58691406 193.24804688 3.58691406 191.24804688 C-4.08604763 192.88630795 -11.7515349 194.5572543 -19.41308594 196.24804688 C-20.83693604 196.56032227 -20.83693604 196.56032227 -22.28955078 196.87890625 C-59.88912124 205.19400181 -95.48518149 222.92359403 -124.78417969 248.11914062 C-127.41308594 250.24804688 -127.41308594 250.24804688 -129.41308594 250.24804688 C-129.6309375 250.79074219 -129.84878906 251.3334375 -130.07324219 251.89257812 C-131.86641854 255.04501352 -134.28356535 257.41567564 -136.85058594 259.93554688 C-137.38699707 260.46446533 -137.9234082 260.99338379 -138.47607422 261.53833008 C-154.62791143 277.26486884 -175.69624402 292.96630103 -199.03808594 293.62304688 C-211.1775398 293.26132298 -219.16953774 288.65912198 -228.22558594 280.81054688 C-236.33572621 271.31009684 -239.09576709 261.6639591 -238.83105469 249.19726562 C-236.72079396 229.25826008 -223.78479848 212.19223382 -208.64599609 199.80175781 C-163.13687694 163.91349791 -108.98026526 140.53596323 -53.41308594 125.24804688 C-53.41308594 118.56381283 -64.75540986 109.61850416 -69.17089844 104.76757812 C-72.23848129 101.32055559 -75.13304337 97.74552125 -78.03417969 94.15820312 C-80.14278088 91.57871562 -82.28667059 89.03808341 -84.45288086 86.50732422 C-123.97211156 40.29916172 -123.97211156 40.29916172 -123.69042969 14.60351562 C-122.6881735 2.47762738 -116.8788392 -9.09379638 -108.41308594 -17.75195312 C-75.34964178 -45.10443874 -29.13815132 -22.10480445 0 0 Z M105.92285156 803.77929688 C105.45255524 804.24863647 104.98225891 804.71797607 104.49771118 805.20153809 C103.49610294 806.20246348 102.49576578 807.20466213 101.49658203 808.20800781 C99.99259542 809.71725814 98.48347378 811.2212186 96.97363281 812.72460938 C92.20962166 817.48530882 87.55648824 822.29621676 83.17431641 827.41552734 C80.45330311 830.55670325 77.56992198 833.54456264 74.71191406 836.56054688 C69.93181039 841.64851737 65.33315734 846.80692336 60.97753906 852.26757812 C59.13795308 854.56104889 57.27551421 856.82239298 55.38378906 859.07226562 C44.33146271 872.25009876 34.34752214 886.07972072 24.67553711 900.29272461 C22.39160074 903.6461593 20.07854662 906.97028077 17.69238281 910.25195312 C-3.49917859 939.46665711 -25.32195856 976.32461663 -20.97558594 1014.04492188 C-18.35572978 1027.91825106 -10.87781041 1039.7501626 0.52441406 1048.24804688 C9.70014392 1054.11657349 19.77203878 1055.8796462 30.58691406 1054.24804688 C39.65255675 1052.05781807 48.32924331 1048.12265207 55.58691406 1042.24804688 C56.79734375 1041.27931641 56.79734375 1041.27931641 58.03222656 1040.29101562 C75.69334889 1025.30336594 86.603115 1002.61159196 94.58691406 981.24804688 C94.85697266 980.52617188 95.12703125 979.80429688 95.40527344 979.06054688 C116.47165323 921.63515603 117.61845425 859.3869941 111.58691406 799.24804688 C109.45238568 799.24804688 107.27391455 802.4299817 105.92285156 803.77929688 Z " fill="#89BAFF" transform="translate(804.4130859375,654.751953125)"/>
<path d="M0 0 C1.55482086 0.05880844 1.55482086 0.05880844 3.14105225 0.11880493 C18.62356366 0.71473383 34.03636572 1.70341655 49.41210938 3.66235352 C52.28817707 4.02072728 55.13411507 4.31666917 58.0234375 4.51953125 C71.71689174 5.55285718 85.17112325 7.37311112 98.72119141 9.57958984 C102.30463715 10.15378421 105.89151487 10.69963077 109.48046875 11.23828125 C111.2742395 11.50825928 111.2742395 11.50825928 113.10424805 11.78369141 C115.4114318 12.13022493 117.71887817 12.47501545 120.02661133 12.81787109 C121.05939209 12.97465332 122.09217285 13.13143555 123.15625 13.29296875 C124.06955078 13.42985107 124.98285156 13.5667334 125.92382812 13.70776367 C128.125 14.125 128.125 14.125 130.125 15.125 C131.49605011 15.30420365 132.87229881 15.44489136 134.25 15.5625 C138.03661656 15.94480263 141.5540302 16.66826358 145.22265625 17.65625 C147.38378537 18.22306178 147.38378537 18.22306178 150.6875 18.625 C153.61699644 19.05110857 156.2589999 19.74324686 159.08911133 20.57226562 C163.72907903 21.83199543 168.47318978 22.6817917 173.18554688 23.625 C177.63134269 24.53477117 181.82309201 25.66324057 186.125 27.125 C190.23898435 28.21098538 194.38029269 29.1888174 198.51757812 30.18164062 C203.41812495 31.37971795 208.18613329 32.75569595 212.95678711 34.39526367 C216.43770017 35.56680394 219.96924992 36.55371426 223.5 37.5625 C229.07570492 39.1817789 234.55543257 40.91591959 239.9921875 42.9609375 C244.32921746 44.57245237 248.69524302 46.09762477 253.0625 47.625 C253.93471191 47.93074951 254.80692383 48.23649902 255.70556641 48.55151367 C260.39247911 50.18932781 265.08965387 51.78060247 269.8125 53.3125 C273.97659485 54.68495763 277.93851239 56.28943094 281.91796875 58.125 C285.92542627 59.94076836 290.03311476 61.5111198 294.125 63.125 C296.51263761 64.0784526 298.89911214 65.03475432 301.28515625 65.9921875 C303.45688513 66.85848925 305.63200465 67.71629557 307.80859375 68.5703125 C308.45932861 68.82699707 309.11006348 69.08368164 309.78051758 69.34814453 C311.6574824 70.08850676 313.53574007 70.82558886 315.4140625 71.5625 C318.71286287 72.90836854 321.87609954 74.46057811 325.04980469 76.07666016 C328.64513094 77.89293438 332.29286304 79.5979444 335.9375 81.3125 C336.68708984 81.66763672 337.43667969 82.02277344 338.20898438 82.38867188 C338.93021484 82.72833984 339.65144531 83.06800781 340.39453125 83.41796875 C341.04010986 83.7224292 341.68568848 84.02688965 342.35083008 84.34057617 C344.30031665 85.23588522 344.30031665 85.23588522 347.125 86.125 C347.125 86.785 347.125 87.445 347.125 88.125 C347.70507812 88.30675781 348.28515625 88.48851562 348.8828125 88.67578125 C349.66398437 88.92714844 350.44515625 89.17851562 351.25 89.4375 C352.01570313 89.68113281 352.78140625 89.92476563 353.5703125 90.17578125 C375.72298714 98.40682091 396.59311333 113.18272339 416.61328125 125.59375 C419.00468798 127.09973295 419.00468798 127.09973295 421.125 128.125 C421.125 128.785 421.125 129.445 421.125 130.125 C422.19814453 130.5271875 422.19814453 130.5271875 423.29296875 130.9375 C426.16628939 132.14231307 428.75837626 133.53737112 431.4375 135.125 C432.32050781 135.640625 433.20351562 136.15625 434.11328125 136.6875 C434.77714844 137.161875 435.44101563 137.63625 436.125 138.125 C436.125 138.785 436.125 139.445 436.125 140.125 C436.66898438 140.38023437 437.21296875 140.63546875 437.7734375 140.8984375 C445.77525063 145.07214069 452.98843472 150.67190722 459.94140625 156.37890625 C462.2528711 158.28140334 462.2528711 158.28140334 465.4375 160.3125 C468.125 162.125 468.125 162.125 470.3828125 164.41796875 C473.31939816 167.31690587 476.40919223 169.75910654 479.6875 172.25 C485.55158261 176.77704079 491.04819013 181.575445 496.453125 186.63671875 C498.6792356 188.70986561 500.93747618 190.71260465 503.25 192.6875 C508.1248084 196.91097701 512.60029103 201.53385974 517.125 206.125 C520.54044118 209.5469105 523.96755722 212.95685861 527.3984375 216.36328125 C528.91413247 217.8715923 530.42934063 219.3803905 531.94433594 220.8894043 C532.9769611 221.9170057 534.01048268 222.94370714 535.04492188 223.96948242 C540.39015115 229.27130298 545.66032833 234.58444624 550.55517578 240.31225586 C552.67996249 242.76583927 554.91769748 245.10169362 557.15844727 247.44897461 C563.28740453 253.87954177 568.9601347 260.49751214 574.359375 267.546875 C576.77538871 270.6998598 579.27936572 273.77117664 581.80737305 276.8347168 C593.16058374 290.60922028 603.79133629 304.90099047 613.125 320.125 C613.50495117 320.74358887 613.88490234 321.36217773 614.27636719 321.99951172 C622.94418766 336.1517116 630.6308293 350.66869015 637.60253906 365.72631836 C639.11793387 368.99373247 640.66292859 372.23577282 642.3125 375.4375 C643.69423036 378.15658051 644.87475173 380.90992663 645.99609375 383.74609375 C646.34615479 384.62869873 646.69621582 385.51130371 647.05688477 386.4206543 C647.40936279 387.31308838 647.76184082 388.20552246 648.125 389.125 C653.6297791 403.03125293 653.6297791 403.03125293 659.4375 416.8125 C661.29364315 421.09360437 662.95001947 425.33978092 664.34765625 429.7890625 C665.33537079 432.75716951 666.48144463 435.65101481 667.625 438.5625 C669.39408154 443.12209706 670.97434941 447.65838492 672.31640625 452.359375 C673.13042178 455.14354405 674.01731337 457.89987774 674.91064453 460.65942383 C677.61521431 469.07397856 679.7831317 477.54148914 681.68847656 486.16992188 C682.07553329 487.90345113 682.48533768 489.63186665 682.8984375 491.359375 C690.90057472 525.94925848 692.64868135 561.34741067 689.8125 596.625 C689.75373688 597.37746002 689.69497375 598.12992004 689.63442993 598.90518188 C688.26133343 616.11605382 685.48842346 633.3871748 679.92333984 649.77172852 C679.15027694 652.05049099 678.40166796 654.33580104 677.66015625 656.625 C675.15556244 664.30502669 672.65057217 671.84366367 669.125 679.125 C668.22989442 681.02796774 667.33999294 682.93331436 666.45092773 684.83911133 C665.8319212 686.16437334 665.21046407 687.48849438 664.58618164 688.8112793 C662.98696929 692.21088803 661.47646316 695.61922429 660.125 699.125 C659.465 699.125 658.805 699.125 658.125 699.125 C657.898125 699.929375 657.67125 700.73375 657.4375 701.5625 C654.21275056 710.31539133 648.77986292 717.60458341 643.33203125 725.0859375 C641.8904186 727.07102536 640.48586182 729.08370728 639.125 731.125 C638.465 731.125 637.805 731.125 637.125 731.125 C636.87621094 731.68832031 636.62742187 732.25164063 636.37109375 732.83203125 C629.7473881 745.0204802 616.31388237 753.53325388 605.125 761.125 C604.135 761.846875 603.145 762.56875 602.125 763.3125 C597.97713478 765.8185019 593.67250277 767.48001395 589.125 769.125 C588.37605469 769.41632812 587.62710938 769.70765625 586.85546875 770.0078125 C575.01334785 774.1636505 560.90198164 774.56339988 549.125 770.125 C545.85978005 768.40620398 543.00930104 766.41719859 540.125 764.125 C539.073125 763.361875 538.02125 762.59875 536.9375 761.8125 C531.1257787 756.25907742 527.71212894 749.62429114 524.4375 742.375 C524.15205322 741.7564917 523.86660645 741.1379834 523.57250977 740.50073242 C518.85436875 729.62705361 517.58739986 718.57113883 517.6875 706.8125 C517.69652344 705.53793945 517.70554687 704.26337891 517.71484375 702.95019531 C518.27176416 672.62123792 533.56215677 650.96253239 554.5390625 630.47265625 C557.42740883 627.69293772 560.37216282 625.01972512 563.41796875 622.4140625 C571.97088115 615.01651738 577.64671218 605.81261103 581.125 595.125 C581.4655542 594.12146484 581.4655542 594.12146484 581.81298828 593.09765625 C589.54548452 569.63352975 586.75077768 545.74375434 581.73144531 521.99707031 C581.2370154 519.65549485 580.7727917 517.3136922 580.3359375 514.9609375 C577.22442705 498.95352832 571.7432201 483.40146773 566.125 468.125 C565.87218262 467.43390137 565.61936523 466.74280273 565.35888672 466.03076172 C562.15705684 457.29942247 558.7243274 448.70011967 555.125 440.125 C554.26561405 438.06120248 553.40623908 435.99740038 552.546875 433.93359375 C544.46555278 414.61495662 536.10432723 395.97646301 525.125 378.125 C524.29033041 376.75002074 523.45569486 375.37502082 522.62109375 374 C511.33589807 355.54395689 498.31707433 338.54777135 483.55078125 322.734375 C481.46085109 320.48626977 479.43657261 318.20349089 477.4375 315.875 C474.55044034 312.54006712 471.48513631 309.43823505 468.3125 306.375 C466.48655467 304.4968848 464.79166485 302.5857078 463.08984375 300.59765625 C458.68993592 295.53418652 453.96007292 290.80979703 449.2097168 286.0793457 C447.69008332 284.5650742 446.17587483 283.0455257 444.66210938 281.52539062 C439.32259887 276.18178967 433.89487418 271.00635594 428.125 266.125 C426.98381128 265.13997563 425.84317097 264.15431548 424.703125 263.16796875 C409.76227055 250.2120293 409.76227055 250.2120293 394.125 238.125 C393.1453125 237.41085937 392.165625 236.69671875 391.15625 235.9609375 C377.54016258 226.09362734 363.5475229 216.77163769 349.125 208.125 C347.93867684 207.39733957 346.75248462 206.66946562 345.56640625 205.94140625 C331.8233885 197.59830298 317.45480116 190.39376826 303.125 183.125 C302.23646835 182.67158737 302.23646835 182.67158737 301.32998657 182.20901489 C293.39333148 178.16103347 285.40692355 174.3747495 277.1875 170.9375 C276.08978271 170.47682129 274.99206543 170.01614258 273.86108398 169.54150391 C242.17547279 156.34711745 210.0183829 144.81574614 176.796875 136.08984375 C174.3463786 135.44593672 171.89842882 134.79225995 169.453125 134.12890625 C156.11137608 130.51199752 142.86026988 127.17342426 129.15917969 125.25170898 C124.81279337 124.62495584 120.61623879 123.76723898 116.35546875 122.69921875 C107.08256958 120.50706158 97.63979653 119.58331001 88.1875 118.5 C85.41185691 118.17552715 82.63646288 117.84902297 79.8611908 117.52139282 C78.14853584 117.31987837 76.43562624 117.12051226 74.72242737 116.92367554 C71.53144398 116.55333132 68.37349871 116.16939633 65.21020508 115.60424805 C60.71289326 114.90564687 56.2040927 114.6553754 51.6640625 114.37109375 C50.64186615 114.30592056 49.6196698 114.24074738 48.5664978 114.17359924 C46.39632661 114.03663869 44.2260448 113.90142126 42.05566406 113.76782227 C38.82302855 113.56703597 35.59125636 113.35511053 32.359375 113.14257812 C17.93231745 112.22863003 3.57922323 111.9414586 -10.875 112.125 C-10.875 113.775 -10.875 115.425 -10.875 117.125 C-10.215 117.125 -9.555 117.125 -8.875 117.125 C-8.875 117.785 -8.875 118.445 -8.875 119.125 C-7.61816406 119.50785156 -7.61816406 119.50785156 -6.3359375 119.8984375 C-2.54292162 121.24268918 0.92724791 122.91514193 4.5 124.75 C5.14066406 125.07484375 5.78132813 125.3996875 6.44140625 125.734375 C8.00447501 126.52757407 9.56500622 127.32577031 11.125 128.125 C11.125 128.785 11.125 129.445 11.125 130.125 C12.00027344 130.39054688 12.87554688 130.65609375 13.77734375 130.9296875 C17.0373897 132.09371791 19.72224005 133.47661783 22.6875 135.25 C23.72132813 135.86617187 24.75515625 136.48234375 25.8203125 137.1171875 C30.29620319 139.83658208 34.76285174 142.56976564 39.21484375 145.328125 C41.11989991 146.50440128 43.04960181 147.64187374 45.00390625 148.734375 C45.70386719 149.19328125 46.40382813 149.6521875 47.125 150.125 C47.125 150.785 47.125 151.445 47.125 152.125 C47.84042969 152.393125 48.55585937 152.66125 49.29296875 152.9375 C52.16628939 154.14231307 54.75837626 155.53737112 57.4375 157.125 C58.32050781 157.640625 59.20351563 158.15625 60.11328125 158.6875 C60.77714844 159.161875 61.44101562 159.63625 62.125 160.125 C62.125 160.785 62.125 161.445 62.125 162.125 C62.681875 162.39570312 63.23875 162.66640625 63.8125 162.9453125 C66.30438052 164.21650831 68.71399621 165.58133009 71.125 167 C72.3934375 167.73863281 72.3934375 167.73863281 73.6875 168.4921875 C76.17885753 170.16107764 78.00885762 172.00885762 80.125 174.125 C82.29477263 175.72538006 84.47060853 177.28123573 86.6875 178.8125 C92.08723367 182.60345932 97.24336048 186.57848915 102.3046875 190.81640625 C104.40970255 192.53948644 106.52464186 194.20346538 108.6953125 195.83984375 C109.29657959 196.29359375 109.89784668 196.74734375 110.51733398 197.21484375 C111.695169 198.09906098 112.87686788 198.97815942 114.06274414 199.8515625 C115.45265514 200.89669101 116.79410085 202.00569054 118.125 203.125 C118.125 203.785 118.125 204.445 118.125 205.125 C118.69863281 205.39054688 119.27226563 205.65609375 119.86328125 205.9296875 C126.54566648 209.46131078 132.18314318 215.00449955 137.7578125 220.0390625 C140.2413056 222.22748711 142.79399299 224.30271321 145.375 226.375 C151.39457741 231.25482573 157.02198622 236.51156589 162.68701172 241.79150391 C167.24685429 246.02000308 171.91980594 249.99338372 176.875 253.75 C180.17835817 256.27543423 182.54581629 258.85803397 185.125 262.125 C186.24971347 262.96649265 187.39798324 263.77701225 188.5625 264.5625 C191.5079572 266.56566051 193.57113556 268.73941519 195.78515625 271.5546875 C197.81142651 273.92949988 200.17361518 275.84719918 202.546875 277.8671875 C206.6862558 281.49228159 210.66919407 285.28511788 214.66943359 289.0625 C217.52890652 291.75095718 220.39488588 294.38563771 223.43359375 296.87109375 C226.125 299.125 226.125 299.125 228.5625 302.0625 C230.96608583 304.93507819 233.39300764 307.18505339 236.28125 309.53515625 C241.53348767 314.06409847 246.03096152 319.32843477 250.625 324.50390625 C252.98707449 326.98039372 255.44179453 329.01175648 258.125 331.125 C259.24479383 332.27818218 260.3302156 333.46594652 261.375 334.6875 C261.96539063 335.37585938 262.55578125 336.06421875 263.1640625 336.7734375 C266.12145172 340.31994808 269.02557757 343.90893339 271.9140625 347.51171875 C274.19161411 350.20373646 276.61483615 352.65008026 279.125 355.125 C283.88807087 360.20284773 288.43178697 365.35368987 292.5234375 370.98828125 C294.51628002 373.64702481 296.63008074 376.19159581 298.75 378.75 C301.78112346 382.42776313 304.52050881 386.13144685 307.125 390.125 C308.87294906 392.42856163 310.65207948 394.70503408 312.44140625 396.9765625 C312.99699219 397.68554688 313.55257812 398.39453125 314.125 399.125 C314.97384766 400.18847656 314.97384766 400.18847656 315.83984375 401.2734375 C317.125 403.125 317.125 403.125 317.125 405.125 C318.115 405.455 319.105 405.785 320.125 406.125 C321.66796875 408.2421875 321.66796875 408.2421875 323.3125 411 C326.34055164 415.92613852 329.58889058 420.58667756 333.01953125 425.23828125 C335.69171475 428.90199851 338.27096001 432.62664149 340.83935547 436.36328125 C343.06606331 439.60212902 345.33256088 442.80752705 347.625 446 C351.040961 450.84459889 354.04995451 455.90922695 357.01757812 461.03662109 C358.81847709 464.11409648 360.57325237 466.65534613 363.125 469.125 C364.35545137 470.9720979 365.53680327 472.85219119 366.6875 474.75 C367.19651855 475.5853125 367.19651855 475.5853125 367.71582031 476.4375 C369.75520462 479.80037313 371.75070424 483.18767062 373.73046875 486.5859375 C374.38970337 487.71588135 374.38970337 487.71588135 375.06225586 488.86865234 C375.92010338 490.34312264 376.77396074 491.81992359 377.62329102 493.29931641 C379.87876317 497.1850356 382.31102025 500.61319866 385.125 504.125 C386.42241247 506.32690938 387.6717764 508.55774125 388.875 510.8125 C389.48859375 511.95074219 390.1021875 513.08898437 390.734375 514.26171875 C392.125 517.125 392.125 517.125 392.125 519.125 C392.785 519.125 393.445 519.125 394.125 519.125 C396.23785015 523.11083566 398.34896902 527.09756748 400.45703125 531.0859375 C402.2796752 534.53300863 404.11180248 537.97484487 405.94921875 541.4140625 C406.86205195 543.13016962 407.77481409 544.84631454 408.6875 546.5625 C409.12884277 547.38468018 409.57018555 548.20686035 410.02490234 549.05395508 C410.43047363 549.81861084 410.83604492 550.5832666 411.25390625 551.37109375 C411.61556885 552.04841553 411.97723145 552.7257373 412.34985352 553.42358398 C413.125 555.125 413.125 555.125 413.125 557.125 C413.785 557.125 414.445 557.125 415.125 557.125 C416.63126117 560.24702006 418.12893243 563.37308399 419.625 566.5 C420.05425781 567.38945313 420.48351563 568.27890625 420.92578125 569.1953125 C421.33183594 570.04609375 421.73789063 570.896875 422.15625 571.7734375 C422.72182617 572.95172119 422.72182617 572.95172119 423.29882812 574.15380859 C424.125 576.125 424.125 576.125 424.125 578.125 C424.785 578.125 425.445 578.125 426.125 578.125 C427.63085523 581.58081315 429.12868289 585.04004753 430.625 588.5 C431.05425781 589.48484375 431.48351563 590.4696875 431.92578125 591.484375 C432.33183594 592.42539062 432.73789063 593.36640625 433.15625 594.3359375 C433.53330078 595.20524902 433.91035156 596.07456055 434.29882812 596.97021484 C435.125 599.125 435.125 599.125 435.125 601.125 C435.785 601.125 436.445 601.125 437.125 601.125 C437.37668945 601.74955078 437.62837891 602.37410156 437.88769531 603.01757812 C439.0467405 605.88810067 440.21083305 608.75655102 441.375 611.625 C441.77074219 612.60726562 442.16648437 613.58953125 442.57421875 614.6015625 C444.5977057 619.57735008 446.72684876 624.41429204 449.18261719 629.18994141 C450.90092419 632.7182578 452.24347666 636.39237676 453.625 640.0625 C456.23918621 646.94443857 456.23918621 646.94443857 459.1875 653.6875 C461.17945488 658.02804797 462.77056896 662.50544324 464.375 667 C464.64578369 667.75095947 464.91656738 668.50191895 465.19555664 669.27563477 C466.27404373 672.34218057 467.125 674.84995378 467.125 678.125 C467.785 678.125 468.445 678.125 469.125 678.125 C469.41221924 679.05248047 469.69943848 679.97996094 469.99536133 680.93554688 C471.07208443 684.4102462 472.15192744 687.8839696 473.23266602 691.35742188 C473.69802243 692.85455743 474.1625573 694.35194863 474.6262207 695.84960938 C475.29677556 698.01501797 475.97038082 700.17945848 476.64453125 702.34375 C476.84778519 703.00242065 477.05103912 703.66109131 477.26045227 704.33972168 C478.30214705 707.67377448 479.42110166 710.95155612 480.67260742 714.21313477 C481.96027825 717.59666664 482.96333536 720.98074739 483.84375 724.49609375 C484.28267578 726.22375977 484.28267578 726.22375977 484.73046875 727.98632812 C485.02566406 729.16646484 485.32085938 730.34660156 485.625 731.5625 C487.81437543 740.55318897 487.81437543 740.55318897 490.61328125 749.36328125 C492.86933663 755.88185722 494.01606507 762.7270453 495.34204102 769.48291016 C495.8144287 771.88480666 496.29819171 774.28421806 496.78320312 776.68359375 C497.08921772 778.22121978 497.39457948 779.7589759 497.69921875 781.296875 C497.84292404 782.00841736 497.98662933 782.71995972 498.13468933 783.45306396 C498.83575778 787.06044522 499.2879336 790.44850369 499.125 794.125 C499.785 794.125 500.445 794.125 501.125 794.125 C502.75977299 804.79212728 504.34073786 815.46585129 505.84649658 826.15197754 C506.08104541 827.81360923 506.31916416 829.47473644 506.55810547 831.13574219 C510.51746882 859.67685505 514.11392453 901.71739617 498.75 927.42578125 C494.37243292 933.17133804 489.11731891 934.69752587 482.1875 935.6875 C476.21918786 935.41834083 471.59034898 931.65486278 467.55761719 927.51660156 C462.58333109 922.04348565 458.54052123 916.0540058 454.5 909.875 C453.80414795 908.82014404 453.1082959 907.76528809 452.39135742 906.6784668 C450.2963436 903.49801805 448.21008528 900.31196372 446.125 897.125 C444.9676211 895.36577147 443.81008085 893.60664908 442.65234375 891.84765625 C435.42316507 880.82768581 428.44080459 869.66421569 421.54833984 858.43115234 C420.28153418 856.37862297 418.99982556 854.33700062 417.70703125 852.30078125 C408.46772101 837.65309428 403.79844636 824.46594919 403.6875 807.0625 C403.46825923 796.3048885 402.18933155 786.43227232 399.55859375 776.02148438 C399.14599639 774.21683557 398.88119571 772.38027557 398.625 770.546875 C397.66908461 764.00482907 395.39276448 757.77844319 393.375 751.5 C391.14192739 744.51683545 389.08758692 737.5010011 387.125 730.4375 C384.44144292 720.84693823 381.4048691 711.35402164 377.28271484 702.26855469 C375.74988546 698.8868116 375.125 696.92231167 375.125 693.125 C374.465 693.125 373.805 693.125 373.125 693.125 C372.795 690.485 372.465 687.845 372.125 685.125 C371.465 685.125 370.805 685.125 370.125 685.125 C369.84527344 684.27679687 369.56554688 683.42859375 369.27734375 682.5546875 C366.63556395 674.82472089 363.56382322 667.69396998 359.8125 660.42578125 C358.32776816 657.52161828 356.95092742 654.60397509 355.625 651.625 C352.33699201 644.28856523 348.67357474 637.13689387 345.03027344 629.97216797 C343.9129563 627.77464907 342.80020528 625.57485679 341.6875 623.375 C341.33324951 622.68317627 340.97899902 621.99135254 340.61401367 621.27856445 C338.125 616.35050244 338.125 616.35050244 338.125 614.125 C337.465 614.125 336.805 614.125 336.125 614.125 C335.89167969 613.62355469 335.65835938 613.12210938 335.41796875 612.60546875 C332.42976374 606.40731914 329.07261338 600.45035097 325.625 594.5 C325.16246826 593.70102295 324.69993652 592.9020459 324.22338867 592.07885742 C319.98404739 584.80273442 315.51088364 577.69529666 310.9375 570.625 C307.98647033 566.05878221 305.0879708 561.46421582 302.22973633 556.83935547 C298.79848235 551.29152409 295.36615151 545.85217185 291.34765625 540.703125 C289.46444547 538.27239927 287.81825795 535.69054235 286.125 533.125 C284.26024871 530.51192119 282.39344886 527.90058036 280.515625 525.296875 C279.125 523.125 279.125 523.125 279.125 521.125 C278.465 521.125 277.805 521.125 277.125 521.125 C275.71484375 519.359375 275.71484375 519.359375 274.0625 516.875 C267.98430122 507.94685739 261.4564867 499.39567988 254.55859375 491.0859375 C253.125 489.125 253.125 489.125 253.125 487.125 C252.465 487.125 251.805 487.125 251.125 487.125 C249.8984375 485.7265625 249.8984375 485.7265625 248.5 483.75 C243.27509595 476.55463336 237.68738882 469.71081243 231.78125 463.06640625 C229.59892562 460.50835149 227.62843687 457.82065832 225.6796875 455.08203125 C223.67771352 452.56195847 221.41555777 450.38519692 219.125 448.125 C217.34075924 446.24177946 215.56984329 444.34584464 213.8125 442.4375 C212.92949219 441.48488281 212.04648438 440.53226563 211.13671875 439.55078125 C209.125 437.125 209.125 437.125 209.125 435.125 C208.465 435.125 207.805 435.125 207.125 435.125 C205.7578125 433.48046875 205.7578125 433.48046875 204.25 431.3125 C202.59476815 428.93364585 201.26358252 427.22832042 198.9296875 425.48828125 C198.33414063 425.03839844 197.73859375 424.58851563 197.125 424.125 C197.125 423.465 197.125 422.805 197.125 422.125 C196.465 422.125 195.805 422.125 195.125 422.125 C193.79296875 420.515625 193.79296875 420.515625 192.3125 418.375 C189.89720709 415.01614057 187.42310202 412.64707802 184.125 410.125 C184.125 409.465 184.125 408.805 184.125 408.125 C183.465 408.125 182.805 408.125 182.125 408.125 C180.78515625 406.76611328 180.78515625 406.76611328 179.1875 404.8203125 C174.90064214 399.78125753 170.2670085 395.11611695 165.58203125 390.45166016 C164.12383221 388.99883651 162.67107843 387.54072095 161.21875 386.08203125 C156.35106821 381.21123909 151.41540061 376.53483195 146.125 372.125 C144.45833333 370.45833333 142.79166667 368.79166667 141.125 367.125 C118.69023551 346.29573655 94.10920514 327.76125753 69.125 310.125 C68.35559082 309.58149902 67.58618164 309.03799805 66.79345703 308.47802734 C56.63681589 301.31252002 46.42839134 294.24539438 36.05273438 287.40087891 C33.96278151 286.01763503 31.8792938 284.62502768 29.796875 283.23046875 C20.34206441 276.90033656 10.83179106 270.66473521 1.26464844 264.50585938 C-0.94946537 263.07694247 -3.15886282 261.64097064 -5.3671875 260.203125 C-15.25748443 253.76692068 -15.25748443 253.76692068 -25.33203125 247.625 C-27.84654879 246.14178228 -30.3432314 244.63068193 -32.83959961 243.1171875 C-46.42990489 234.90087927 -60.11409233 226.79202959 -74.40234375 219.84375 C-79.24535676 217.44675819 -84.00092292 214.89161778 -88.75292969 212.31958008 C-93.69579531 209.66922271 -98.72801583 207.34945621 -103.875 205.125 C-104.87474854 204.68760498 -105.87449707 204.25020996 -106.90454102 203.79956055 C-120.75721624 197.74930773 -134.61513005 191.84458547 -148.88183594 186.82910156 C-150.75182726 186.16851178 -152.61450062 185.48730888 -154.4765625 184.8046875 C-177.57288119 176.36258481 -200.94079954 170.31148393 -225.06982422 165.66845703 C-229.82068893 164.74805452 -234.55974644 163.77040317 -239.30078125 162.80078125 C-242.37330368 162.21985624 -245.44565831 161.69642622 -248.53125 161.19140625 C-258.03396806 159.62223796 -267.46189922 157.68586074 -276.89306641 155.73779297 C-278.71690993 155.36298969 -280.54186976 154.99350639 -282.36865234 154.63330078 C-301.6325995 150.82760941 -320.51300077 144.11963145 -332.37109375 127.546875 C-338.97505025 116.91193206 -340.89080808 106.20176711 -338.17578125 93.9765625 C-330.25000666 70.09891248 -306.6273713 56.20792877 -285.484375 45.296875 C-267.24143904 36.16905944 -248.16468021 29.1985768 -228.421875 24.09765625 C-225.44360836 23.28092894 -222.72394539 22.29316619 -219.875 21.125 C-217.80594361 20.65779372 -215.73588034 20.19444228 -213.66015625 19.7578125 C-209.00582423 18.70030649 -204.41632108 17.39531089 -199.81640625 16.125 C-195.21211669 14.91025127 -190.55004795 14.02040185 -185.875 13.125 C-185.08601318 12.97063477 -184.29702637 12.81626953 -183.48413086 12.65722656 C-147.6314106 5.69496168 -111.30844135 2.19861647 -74.875 0.125 C-73.84826172 0.06570313 -72.82152344 0.00640625 -71.76367188 -0.0546875 C-47.80464552 -1.39371492 -23.96250898 -0.93954289 0 0 Z " fill="#89BAFF" transform="translate(954.875,355.875)"/>
<path d="M0 0 C16.12076161 10.55919609 27.72202579 24.40643817 32.4375 43.4375 C34.63351816 56.99173129 32.67692364 67.74429225 25.4375 79.4375 C18.94889258 87.98058677 7.20129627 96.22227073 -3.55908203 97.71435547 C-20.39238599 99.32022622 -33.0712631 97.24083135 -46.4765625 86.234375 C-47.16492187 85.64140625 -47.85328125 85.0484375 -48.5625 84.4375 C-49.16835937 83.92703125 -49.77421875 83.4165625 -50.3984375 82.890625 C-60.51151797 73.64699489 -68.72454857 58.26601644 -69.70141602 44.4765625 C-70.38428267 29.17498043 -68.74443986 15.43763385 -58.0625 3.6875 C-57.2375 2.945 -56.4125 2.2025 -55.5625 1.4375 C-54.82 0.756875 -54.0775 0.07625 -53.3125 -0.625 C-37.27341896 -11.92526164 -16.24104124 -9.37131171 0 0 Z " fill="#89BAFF" transform="translate(1249.5625,1095.5625)"/>
<path d="M0 0 C4.71199682 2.97206772 6.48666855 6.58335593 8.5625 11.5625 C12.70986941 20.9195439 17.99197181 29.35153792 23.61181641 37.88476562 C24.83648866 39.75085082 26.03862415 41.62849183 27.23046875 43.515625 C31.06788565 49.49004652 35.24502287 54.77215841 40.1171875 59.94140625 C42.49735442 62.54378793 43.88935006 64.36376283 44.5 67.875 C43.9068533 71.58216685 42.6525146 72.51537045 39.77539062 74.77294922 C36.86133577 76.78698108 33.74133256 78.2351576 30.5 79.625 C29.73937256 79.95564453 28.97874512 80.28628906 28.19506836 80.62695312 C10.8807948 87.99229395 -6.94509048 94.25991009 -24.9375 99.75 C-26.04988037 100.09740234 -27.16226074 100.44480469 -28.30834961 100.80273438 C-33.91988083 102.45898027 -38.31174476 103.72692702 -44 102 C-46.96510246 99.65348455 -46.99030158 99.08044922 -47.4765625 95.046875 C-47.2522052 88.91772948 -44.81460508 83.79429099 -42.375 78.25 C-41.3625546 75.86248981 -40.3541636 73.47365586 -39.3515625 71.08203125 C-39.08432373 70.44781754 -38.81708496 69.81360382 -38.54174805 69.16017151 C-35.05736815 60.83819041 -31.91555911 52.38458649 -28.75 43.9375 C-28.17893726 42.41501522 -27.60781222 40.8925538 -27.03662109 39.37011719 C-26.75881805 38.62954071 -26.48101501 37.88896423 -26.1947937 37.12594604 C-25.08691036 34.17713494 -23.9735835 31.23039303 -22.85961914 28.28387451 C-22.26597897 26.70666481 -21.67621293 25.12799341 -21.08959961 23.54815674 C-20.17748947 21.09267414 -19.253752 18.64182031 -18.328125 16.19140625 C-18.05385681 15.44406723 -17.77958862 14.69672821 -17.49700928 13.92674255 C-14.42265897 5.86064372 -9.63654629 -1.40532967 0 0 Z " fill="#89BAFF" transform="translate(1071,1623)"/>
<path d="" fill="#FFFFFF" transform="translate(0,0)"/>
<path d="" fill="#FFFFFF" transform="translate(0,0)"/>
<path d="" fill="#FFFFFF" transform="translate(0,0)"/>
<path d="" fill="#FFFFFF" transform="translate(0,0)"/>
<path d="" fill="#FFFFFF" transform="translate(0,0)"/>
<path d="" fill="#FFFFFF" transform="translate(0,0)"/>
<path d="" fill="#FFFFFF" transform="translate(0,0)"/>
<path d="" fill="#FFFFFF" transform="translate(0,0)"/>
<path d="" fill="#FFFFFF" transform="translate(0,0)"/>
</svg>
